<?xml version="1.0" standalone="no"?>
<!DOCTYPE svg PUBLIC "-//W3C//DTD SVG 20010904//EN"
"http://www.w3.org/TR/2001/REC-SVG-20010904/DTD/svg10.dtd">
<svg version="1.0" xmlns="http://www.w3.org/2000/svg"
width="95.000000pt" height="105.000000pt" viewBox="0 0 95.000000 105.000000"
preserveAspectRatio="xMidYMid meet">

<g transform="translate(0.000000,105.000000) scale(0.100000,-0.100000)"
fill="#000000" stroke="none">
<path d="M452 898 c-5 -7 -24 -42 -42 -78 -18 -36 -34 -67 -35 -68 -2 -2 -42
9 -89 24 -112 37 -117 33 -79 -82 16 -51 24 -89 18 -91 -48 -18 -150 -81 -150
-93 0 -12 102 -75 150 -93 6 -2 -2 -40 -18 -91 -38 -115 -34 -119 80 -82 48
16 89 25 90 20 17 -44 81 -150 93 -152 10 -1 30 26 59 78 23 45 48 79 55 77
89 -34 157 -50 168 -39 11 11 -5 79 -39 169 -3 7 29 29 76 53 106 53 106 65 0
120 -45 23 -79 47 -76 53 34 90 50 158 39 169 -11 11 -79 -5 -169 -39 -7 -3
-29 29 -53 76 -39 79 -57 94 -78 69z m130 -224 c186 -131 50 -414 -170 -355
-75 21 -142 111 -142 191 0 74 67 169 134 190 57 17 132 6 178 -26z"/>
<path d="M397 638 c-40 -23 -77 -86 -77 -129 0 -14 10 -45 23 -69 65 -127 255
-95 274 47 12 90 -45 163 -135 170 -36 3 -56 -2 -85 -19z"/>
</g>
</svg>
